<svg
 xmlns="http://www.w3.org/2000/svg"
 xmlns:xlink="http://www.w3.org/1999/xlink"
 width="39px" height="39px">
<path fill-rule="evenodd"  fill="rgb(128, 64, 122)"
 d="M19.511,38.304 C9.124,38.304 0.673,29.769 0.673,19.277 C0.673,8.786 9.124,0.250 19.511,0.250 C29.899,0.250 38.350,8.786 38.350,19.277 C38.350,29.769 29.899,38.304 19.511,38.304 ZM20.689,2.689 L20.689,5.007 C20.689,5.664 20.162,6.196 19.511,6.196 C18.861,6.196 18.334,5.664 18.334,5.007 L18.334,2.689 C14.675,2.951 11.348,4.419 8.733,6.709 L9.747,7.734 C10.207,8.198 10.207,8.951 9.747,9.415 C9.517,9.648 9.216,9.764 8.915,9.764 C8.613,9.764 8.312,9.648 8.082,9.415 L7.068,8.391 C4.801,11.032 3.347,14.393 3.087,18.088 L5.382,18.088 C6.033,18.088 6.560,18.620 6.560,19.277 C6.560,19.935 6.033,20.467 5.382,20.467 L3.087,20.467 C3.334,23.974 4.649,27.185 6.721,29.759 C6.763,29.534 6.849,29.316 7.023,29.140 L8.082,28.071 C8.542,27.606 9.287,27.606 9.747,28.071 C9.977,28.303 10.092,28.607 10.092,28.911 C10.092,29.216 9.977,29.520 9.747,29.752 L8.688,30.822 C8.489,31.023 8.234,31.120 7.973,31.147 C10.949,34.098 15.021,35.926 19.511,35.926 C24.012,35.926 28.094,34.091 31.071,31.127 C30.847,31.085 30.628,30.997 30.454,30.822 L29.395,29.752 C28.936,29.288 28.936,28.535 29.395,28.071 C29.625,27.839 29.927,27.722 30.228,27.722 C30.529,27.722 30.830,27.839 31.060,28.071 L32.119,29.140 C32.260,29.282 32.343,29.453 32.397,29.632 C34.412,27.078 35.693,23.917 35.936,20.467 L33.641,20.467 C32.990,20.467 32.463,19.935 32.463,19.277 C32.463,18.620 32.990,18.088 33.641,18.088 L35.936,18.088 C35.356,9.858 28.838,3.274 20.689,2.689 ZM22.771,18.850 C22.746,18.881 22.708,18.893 22.680,18.920 C22.906,19.390 23.044,19.910 23.044,20.467 C23.044,22.434 21.459,24.034 19.511,24.034 C17.564,24.034 15.979,22.434 15.979,20.467 C15.979,18.499 17.564,16.899 19.511,16.899 C20.053,16.899 20.561,17.032 21.021,17.254 L26.849,10.191 C27.265,9.687 28.006,9.620 28.508,10.039 C29.007,10.459 29.075,11.210 28.658,11.715 L22.771,18.850 ZM20.689,19.277 L18.334,19.277 L18.334,21.656 L20.689,21.656 L20.689,19.277 Z"/>
</svg>
