<svg id="Слой_1" data-name="Слой 1" xmlns="http://www.w3.org/2000/svg" width="39" height="39" viewBox="0 0 34.15 36.45"><defs><style>.cls-1{fill:#80407a;fill-rule:evenodd;}</style></defs><path id="Timer" class="cls-1" d="M30.87,7.3a1.36,1.36,0,0,0,.26-.41l1.53,1.56a1.14,1.14,0,0,0,1.6-1.63L29.74,2.26a1.12,1.12,0,0,0-1.58,0l0,0a1.15,1.15,0,0,0,0,1.61l1.53,1.56a1.07,1.07,0,0,0-.4.26l-1.11,1.1a16.81,16.81,0,0,0-9.42-3.67V1.92a1.13,1.13,0,1,0-2.26,0v1.2A17.08,17.08,0,1,0,29.83,8.34ZM17.62,35.07a14.86,14.86,0,1,1,14.71-15v.14A14.79,14.79,0,0,1,17.62,35.07ZM18.75,17V8.77a1.13,1.13,0,1,0-2.26,0V17a3.39,3.39,0,1,0,2.26,0Zm0,4.37H16.49V19.07h2.26Z" transform="translate(-0.44 -0.79)"/></svg>
